<?xml version="1.0" encoding="UTF-8"?>
<svg id="Layer_1" data-name="Layer 1" xmlns="http://www.w3.org/2000/svg" xmlns:xlink="http://www.w3.org/1999/xlink" viewBox="0 0 208.24 185.53">
  <defs>
    <style>
      .cls-1 {
        fill: url(#linear-gradient-2);
      }

      .cls-2 {
        fill: url(#linear-gradient);
      }

      .cls-3 {
        fill: #fff;
      }

      .cls-4 {
        fill: #222aa2;
      }
    </style>
    <linearGradient id="linear-gradient" x1="74.85" y1="75.31" x2="137" y2="103.32" gradientUnits="userSpaceOnUse">
      <stop offset=".41" stop-color="#222aa2"/>
      <stop offset=".76" stop-color="#cacaff"/>
      <stop offset="1" stop-color="#fff"/>
    </linearGradient>
    <linearGradient id="linear-gradient-2" x1="131.69" y1="109.08" x2="68.67" y2="82.82" xlink:href="#linear-gradient"/>
  </defs>
  <path class="cls-4" d="M197.74,57.43v27.17l-13.81,8.1,13.81,8.1v27.17c0,9.05-3.2,16.84-9.6,23.35l-14.75,15.01c-6.4,6.51-14.04,9.77-22.94,9.77H10.5V42.18c0-9.06,3.16-16.8,9.48-23.24,6.32-6.44,13.93-9.65,22.82-9.65h107.67c8.89,0,16.54,3.18,22.94,9.53l14.98,15.25c6.24,6.52,9.36,14.3,9.36,23.35Z"/>
  <path class="cls-3" d="M170.01,68.92c0-6.4-2.2-11.91-6.59-16.51l-10.54-10.79c-4.51-4.5-9.89-6.74-16.14-6.74H60.96c-6.26,0-11.61,2.27-16.06,6.83-4.45,4.54-6.67,10.03-6.67,16.43v94.7h98.51c6.26,0,11.63-2.31,16.14-6.91l10.37-10.61c4.5-4.6,6.76-10.11,6.76-16.51v-19.21l-9.72-5.73,9.72-5.73v-19.21h0ZM146.14,98.28v30.12h-71.81l-12.19,14.49V59.31h71.65l12.35-14.49v53.46h.01Z"/>
  <polygon class="cls-2" points="113.45 101.18 146.14 127.75 146.14 87.12 96.34 87.27 113.45 101.18"/>
  <polygon class="cls-1" points="113.45 100.96 96.34 87.05 62.13 59.24 62.13 100.96 113.45 100.96"/>
</svg>