<?xml version="1.0" encoding="UTF-8"?>
<svg id="Layer_1" data-name="Layer 1" xmlns="http://www.w3.org/2000/svg" xmlns:xlink="http://www.w3.org/1999/xlink" viewBox="0 0 908.89 156.08">
  <defs>
    <style>
      .cls-1 {
        fill: url(#linear-gradient-2);
      }

      .cls-2 {
        fill: url(#linear-gradient);
      }

      .cls-3 {
        fill: #1c222a;
      }
    </style>
    <linearGradient id="linear-gradient" x1="180.9" y1="110.64" x2="22.57" y2="48.58" gradientUnits="userSpaceOnUse">
      <stop offset=".38" stop-color="#1c222a"/>
      <stop offset=".67" stop-color="#4094a2"/>
      <stop offset=".99" stop-color="#9383a5" stop-opacity=".5"/>
    </linearGradient>
    <linearGradient id="linear-gradient-2" x1="-46.27" y1="38.21" x2="202.62" y2="107.88" xlink:href="#linear-gradient"/>
  </defs>
  <g>
    <path class="cls-3" d="M352.03,156.08h-43.76c-7.55,0-14.23-2.51-20.03-7.54-.87-.89-2.8-2.58-5.77-5.1-2.98-2.51-4.94-4.25-5.88-5.21-.95-.96-2.4-2.55-4.36-4.77-1.96-2.22-3.3-4.13-4.03-5.76-.73-1.63-1.45-3.66-2.18-6.1-.73-2.44-1.09-5.06-1.09-7.87V43.26c0-2.8.36-5.43,1.09-7.87.73-2.44,1.45-4.47,2.18-6.1.72-1.62,2.07-3.54,4.03-5.76,1.96-2.22,3.45-3.8,4.46-4.77,1.01-.96,2.97-2.69,5.88-5.21,2.9-2.51,4.79-4.21,5.66-5.1,5.66-5.02,12.33-7.54,20.03-7.54h87.73c7.55,0,14.15,2.52,19.81,7.54,1.01,1.03,2.68,2.51,5.01,4.43,2.32,1.92,3.99,3.36,5.01,4.32,1.01.96,2.39,2.33,4.13,4.1,1.74,1.77,3.05,3.33,3.92,4.66.87,1.33,1.78,2.92,2.72,4.77.94,1.85,1.6,3.81,1.96,5.87.36,2.07.54,4.29.54,6.65v70.49c0,2.81-.33,5.43-.98,7.87-.65,2.44-1.38,4.47-2.18,6.1-.8,1.63-2.18,3.55-4.14,5.76-1.96,2.22-3.41,3.81-4.35,4.77-.95.96-2.91,2.7-5.88,5.21-2.98,2.51-4.9,4.21-5.77,5.1-5.66,5.02-12.27,7.54-19.81,7.54h-43.98ZM352.03,33.06h-55.51v109.95l16.33-19.06h94.7V14l-16.11,19.06h-39.4Z"/>
    <path class="cls-3" d="M605.54,119.07V.92h31.57l.22,155.17h-28.08c-9.14,0-16.69-3.55-22.64-10.64l-92.09-107.73v118.37h-31.57V.92h28.08c9.14,0,16.69,3.55,22.64,10.64l91.87,107.51Z"/>
    <path class="cls-3" d="M782.62,33.06l-16.33-19.06v129.01l16.33-19.06h126.27l-18.72,32.14h-112.12c-7.55,0-14.23-2.51-20.03-7.54l-13.06-11.75c-6.82-6.06-10.23-13.74-10.23-23.05V43.26c0-9.31,3.41-16.99,10.23-23.05l13.06-11.75c5.66-5.02,12.33-7.54,20.03-7.54h130.84v32.14h-126.27Z"/>
    <rect class="cls-3" x="201.32" y=".88" width="37.81" height="154.99"/>
    <rect class="cls-3" x="668.89" y=".88" width="37.81" height="154.99"/>
  </g>
  <g>
    <path class="cls-3" d="M174.96,44.98c0-8.46-2.92-15.73-8.75-21.82l-14-14.25c-5.98-5.94-13.12-8.91-21.43-8.91H30.18c-8.31,0-15.42,3.01-21.32,9.02C2.95,15.03,0,22.27,0,30.73v125.14h130.78c8.31,0,15.45-3.04,21.43-9.13l13.78-14.03c5.98-6.09,8.97-13.36,8.97-21.82v-25.39l-12.9-7.57,12.9-7.57v-25.38ZM143.24,83.79v39.8H47.89l-16.18,19.15V32.29h95.13l16.4-19.15v70.65Z"/>
    <polygon class="cls-2" points="99.86 87.61 143.24 122.72 143.24 69.04 77.14 69.22 99.86 87.61"/>
    <polygon class="cls-1" points="99.86 87.61 77.14 69.23 31.71 32.47 31.71 87.61 99.86 87.61"/>
  </g>
</svg>